<mxfile host="app.diagrams.net" modified="2021-01-25T03:00:39.244Z" agent="5.0 (Macintosh; Intel Mac OS X 10_15_7) AppleWebKit/537.36 (KHTML, like Gecko) Chrome/88.0.4324.96 Safari/537.36" etag="mM3bp-BTWq0IOdwxwAuY" version="14.1.4" type="github">
  <diagram id="D5aq2K3yjqYWTJDnCrnq" name="Page-1">
    <mxGraphModel dx="901" dy="591" grid="1" gridSize="10" guides="1" tooltips="1" connect="1" arrows="1" fold="1" page="1" pageScale="1" pageWidth="1600" pageHeight="1200" background="#331A00" math="0" shadow="0">
      <root>
        <mxCell id="0" />
        <mxCell id="1" parent="0" />
        <mxCell id="mzSuAw1_2x3uhrXtTWw6-28" value="BonusBatch" style="shape=table;startSize=30;container=1;collapsible=1;childLayout=tableLayout;fixedRows=1;rowLines=0;fontStyle=3;align=center;resizeLast=1;fillColor=#BC6C25;strokeColor=#DDA15E;fontColor=#FEFAE0;rounded=1;" parent="1" vertex="1">
          <mxGeometry x="20" y="20" width="110" height="140" as="geometry" />
        </mxCell>
        <mxCell id="mzSuAw1_2x3uhrXtTWw6-29" value="" style="shape=partialRectangle;collapsible=0;dropTarget=0;pointerEvents=0;fillColor=none;top=0;left=0;bottom=1;right=0;points=[[0,0.5],[1,0.5]];portConstraint=eastwest;strokeColor=#DDA15E;fontColor=#FEFAE0;rounded=1;" parent="mzSuAw1_2x3uhrXtTWw6-28" vertex="1">
          <mxGeometry y="30" width="110" height="30" as="geometry" />
        </mxCell>
        <mxCell id="mzSuAw1_2x3uhrXtTWw6-30" value="PK" style="shape=partialRectangle;connectable=0;fillColor=none;top=0;left=0;bottom=0;right=0;fontStyle=1;overflow=hidden;strokeColor=#DDA15E;fontColor=#FEFAE0;rounded=1;" parent="mzSuAw1_2x3uhrXtTWw6-29" vertex="1">
          <mxGeometry width="30" height="30" as="geometry" />
        </mxCell>
        <mxCell id="mzSuAw1_2x3uhrXtTWw6-31" value="id" style="shape=partialRectangle;connectable=0;fillColor=none;top=0;left=0;bottom=0;right=0;align=left;spacingLeft=6;fontStyle=5;overflow=hidden;strokeColor=#DDA15E;fontColor=#FEFAE0;rounded=1;" parent="mzSuAw1_2x3uhrXtTWw6-29" vertex="1">
          <mxGeometry x="30" width="80" height="30" as="geometry" />
        </mxCell>
        <mxCell id="mzSuAw1_2x3uhrXtTWw6-32" value="" style="shape=partialRectangle;collapsible=0;dropTarget=0;pointerEvents=0;fillColor=none;top=0;left=0;bottom=0;right=0;points=[[0,0.5],[1,0.5]];portConstraint=eastwest;strokeColor=#DDA15E;fontColor=#FEFAE0;rounded=1;" parent="mzSuAw1_2x3uhrXtTWw6-28" vertex="1">
          <mxGeometry y="60" width="110" height="30" as="geometry" />
        </mxCell>
        <mxCell id="mzSuAw1_2x3uhrXtTWw6-33" value="" style="shape=partialRectangle;connectable=0;fillColor=none;top=0;left=0;bottom=0;right=0;editable=1;overflow=hidden;strokeColor=#DDA15E;fontColor=#FEFAE0;rounded=1;" parent="mzSuAw1_2x3uhrXtTWw6-32" vertex="1">
          <mxGeometry width="30" height="30" as="geometry" />
        </mxCell>
        <mxCell id="mzSuAw1_2x3uhrXtTWw6-34" value="" style="shape=partialRectangle;connectable=0;fillColor=none;top=0;left=0;bottom=0;right=0;align=left;spacingLeft=6;overflow=hidden;strokeColor=#DDA15E;fontColor=#FEFAE0;rounded=1;" parent="mzSuAw1_2x3uhrXtTWw6-32" vertex="1">
          <mxGeometry x="30" width="80" height="30" as="geometry" />
        </mxCell>
        <mxCell id="mzSuAw1_2x3uhrXtTWw6-35" value="" style="shape=partialRectangle;collapsible=0;dropTarget=0;pointerEvents=0;fillColor=none;top=0;left=0;bottom=0;right=0;points=[[0,0.5],[1,0.5]];portConstraint=eastwest;strokeColor=#DDA15E;fontColor=#FEFAE0;rounded=1;" parent="mzSuAw1_2x3uhrXtTWw6-28" vertex="1">
          <mxGeometry y="90" width="110" height="20" as="geometry" />
        </mxCell>
        <mxCell id="mzSuAw1_2x3uhrXtTWw6-36" value="" style="shape=partialRectangle;connectable=0;fillColor=none;top=0;left=0;bottom=0;right=0;editable=1;overflow=hidden;strokeColor=#DDA15E;fontColor=#FEFAE0;rounded=1;" parent="mzSuAw1_2x3uhrXtTWw6-35" vertex="1">
          <mxGeometry width="30" height="20" as="geometry" />
        </mxCell>
        <mxCell id="mzSuAw1_2x3uhrXtTWw6-37" value="" style="shape=partialRectangle;connectable=0;fillColor=none;top=0;left=0;bottom=0;right=0;align=left;spacingLeft=6;overflow=hidden;strokeColor=#DDA15E;fontColor=#FEFAE0;rounded=1;" parent="mzSuAw1_2x3uhrXtTWw6-35" vertex="1">
          <mxGeometry x="30" width="80" height="20" as="geometry" />
        </mxCell>
        <mxCell id="mzSuAw1_2x3uhrXtTWw6-38" value="" style="shape=partialRectangle;collapsible=0;dropTarget=0;pointerEvents=0;fillColor=none;top=0;left=0;bottom=0;right=0;points=[[0,0.5],[1,0.5]];portConstraint=eastwest;strokeColor=#DDA15E;fontColor=#FEFAE0;rounded=1;" parent="mzSuAw1_2x3uhrXtTWw6-28" vertex="1">
          <mxGeometry y="110" width="110" height="30" as="geometry" />
        </mxCell>
        <mxCell id="mzSuAw1_2x3uhrXtTWw6-39" value="" style="shape=partialRectangle;connectable=0;fillColor=none;top=0;left=0;bottom=0;right=0;editable=1;overflow=hidden;strokeColor=#DDA15E;fontColor=#FEFAE0;rounded=1;" parent="mzSuAw1_2x3uhrXtTWw6-38" vertex="1">
          <mxGeometry width="30" height="30" as="geometry" />
        </mxCell>
        <mxCell id="mzSuAw1_2x3uhrXtTWw6-40" value="" style="shape=partialRectangle;connectable=0;fillColor=none;top=0;left=0;bottom=0;right=0;align=left;spacingLeft=6;overflow=hidden;strokeColor=#DDA15E;fontColor=#FEFAE0;rounded=1;" parent="mzSuAw1_2x3uhrXtTWw6-38" vertex="1">
          <mxGeometry x="30" width="80" height="30" as="geometry" />
        </mxCell>
        <mxCell id="GnCDCCcLNcnBo4Y5lC2j-31" value="Bonus" style="shape=table;startSize=30;container=1;collapsible=1;childLayout=tableLayout;fixedRows=1;rowLines=0;fontStyle=1;align=center;resizeLast=1;fillColor=#BC6C25;strokeColor=#DDA15E;fontColor=#FEFAE0;rounded=1;" parent="1" vertex="1">
          <mxGeometry x="20" y="180" width="130" height="160" as="geometry" />
        </mxCell>
        <mxCell id="GnCDCCcLNcnBo4Y5lC2j-32" value="" style="shape=partialRectangle;collapsible=0;dropTarget=0;pointerEvents=0;fillColor=none;top=0;left=0;bottom=1;right=0;points=[[0,0.5],[1,0.5]];portConstraint=eastwest;strokeColor=#DDA15E;fontColor=#FEFAE0;rounded=1;" parent="GnCDCCcLNcnBo4Y5lC2j-31" vertex="1">
          <mxGeometry y="30" width="130" height="30" as="geometry" />
        </mxCell>
        <mxCell id="GnCDCCcLNcnBo4Y5lC2j-33" value="PK" style="shape=partialRectangle;connectable=0;fillColor=none;top=0;left=0;bottom=0;right=0;fontStyle=1;overflow=hidden;strokeColor=#DDA15E;fontColor=#FEFAE0;rounded=1;" parent="GnCDCCcLNcnBo4Y5lC2j-32" vertex="1">
          <mxGeometry width="30" height="30" as="geometry" />
        </mxCell>
        <mxCell id="GnCDCCcLNcnBo4Y5lC2j-34" value="id" style="shape=partialRectangle;connectable=0;fillColor=none;top=0;left=0;bottom=0;right=0;align=left;spacingLeft=6;fontStyle=5;overflow=hidden;strokeColor=#DDA15E;fontColor=#FEFAE0;rounded=1;" parent="GnCDCCcLNcnBo4Y5lC2j-32" vertex="1">
          <mxGeometry x="30" width="100" height="30" as="geometry" />
        </mxCell>
        <mxCell id="GnCDCCcLNcnBo4Y5lC2j-35" value="" style="shape=partialRectangle;collapsible=0;dropTarget=0;pointerEvents=0;fillColor=none;top=0;left=0;bottom=0;right=0;points=[[0,0.5],[1,0.5]];portConstraint=eastwest;strokeColor=#DDA15E;fontColor=#FEFAE0;rounded=1;" parent="GnCDCCcLNcnBo4Y5lC2j-31" vertex="1">
          <mxGeometry y="60" width="130" height="30" as="geometry" />
        </mxCell>
        <mxCell id="GnCDCCcLNcnBo4Y5lC2j-36" value="" style="shape=partialRectangle;connectable=0;fillColor=none;top=0;left=0;bottom=0;right=0;editable=1;overflow=hidden;strokeColor=#DDA15E;fontColor=#FEFAE0;rounded=1;" parent="GnCDCCcLNcnBo4Y5lC2j-35" vertex="1">
          <mxGeometry width="30" height="30" as="geometry" />
        </mxCell>
        <mxCell id="GnCDCCcLNcnBo4Y5lC2j-37" value="" style="shape=partialRectangle;connectable=0;fillColor=none;top=0;left=0;bottom=0;right=0;align=left;spacingLeft=6;overflow=hidden;strokeColor=#DDA15E;fontColor=#FEFAE0;rounded=1;" parent="GnCDCCcLNcnBo4Y5lC2j-35" vertex="1">
          <mxGeometry x="30" width="100" height="30" as="geometry" />
        </mxCell>
        <mxCell id="GnCDCCcLNcnBo4Y5lC2j-38" value="" style="shape=partialRectangle;collapsible=0;dropTarget=0;pointerEvents=0;fillColor=none;top=0;left=0;bottom=0;right=0;points=[[0,0.5],[1,0.5]];portConstraint=eastwest;strokeColor=#DDA15E;fontColor=#FEFAE0;rounded=1;" parent="GnCDCCcLNcnBo4Y5lC2j-31" vertex="1">
          <mxGeometry y="90" width="130" height="20" as="geometry" />
        </mxCell>
        <mxCell id="GnCDCCcLNcnBo4Y5lC2j-39" value="" style="shape=partialRectangle;connectable=0;fillColor=none;top=0;left=0;bottom=0;right=0;editable=1;overflow=hidden;strokeColor=#DDA15E;fontColor=#FEFAE0;rounded=1;" parent="GnCDCCcLNcnBo4Y5lC2j-38" vertex="1">
          <mxGeometry width="30" height="20" as="geometry" />
        </mxCell>
        <mxCell id="GnCDCCcLNcnBo4Y5lC2j-40" value="" style="shape=partialRectangle;connectable=0;fillColor=none;top=0;left=0;bottom=0;right=0;align=left;spacingLeft=6;overflow=hidden;strokeColor=#DDA15E;fontColor=#FEFAE0;rounded=1;" parent="GnCDCCcLNcnBo4Y5lC2j-38" vertex="1">
          <mxGeometry x="30" width="100" height="20" as="geometry" />
        </mxCell>
        <mxCell id="GnCDCCcLNcnBo4Y5lC2j-41" value="" style="shape=partialRectangle;collapsible=0;dropTarget=0;pointerEvents=0;fillColor=none;top=0;left=0;bottom=0;right=0;points=[[0,0.5],[1,0.5]];portConstraint=eastwest;strokeColor=#DDA15E;fontColor=#FEFAE0;rounded=1;" parent="GnCDCCcLNcnBo4Y5lC2j-31" vertex="1">
          <mxGeometry y="110" width="130" height="30" as="geometry" />
        </mxCell>
        <mxCell id="GnCDCCcLNcnBo4Y5lC2j-42" value="" style="shape=partialRectangle;connectable=0;fillColor=none;top=0;left=0;bottom=0;right=0;editable=1;overflow=hidden;strokeColor=#DDA15E;fontColor=#FEFAE0;rounded=1;" parent="GnCDCCcLNcnBo4Y5lC2j-41" vertex="1">
          <mxGeometry width="30" height="30" as="geometry" />
        </mxCell>
        <mxCell id="GnCDCCcLNcnBo4Y5lC2j-43" value="" style="shape=partialRectangle;connectable=0;fillColor=none;top=0;left=0;bottom=0;right=0;align=left;spacingLeft=6;overflow=hidden;strokeColor=#DDA15E;fontColor=#FEFAE0;rounded=1;" parent="GnCDCCcLNcnBo4Y5lC2j-41" vertex="1">
          <mxGeometry x="30" width="100" height="30" as="geometry" />
        </mxCell>
        <mxCell id="GnCDCCcLNcnBo4Y5lC2j-128" value="User&amp;nbsp;&lt;br&gt;- has_many Workspace&lt;br&gt;- has_many Board&lt;br&gt;&lt;br&gt;Workspace&lt;br&gt;- name&lt;br&gt;- user:belongs_to&lt;br&gt;- position:integer&lt;br&gt;&lt;br&gt;Board&lt;br&gt;- name&lt;br&gt;- workplace:belongs_to&lt;br&gt;-position:integer&lt;br&gt;&lt;br&gt;&lt;br&gt;View&lt;br&gt;- Table&lt;br&gt;- Timeline&lt;br&gt;- Calendar&lt;br&gt;- Chart&lt;br&gt;- Kanban&lt;br&gt;- Form&lt;br&gt;- Workload&lt;br&gt;" style="whiteSpace=wrap;html=1;aspect=fixed;align=left;fillColor=#BC6C25;strokeColor=#DDA15E;fontColor=#FEFAE0;rounded=1;" parent="1" vertex="1">
          <mxGeometry x="90" y="720" width="230" height="230" as="geometry" />
        </mxCell>
        <mxCell id="GnCDCCcLNcnBo4Y5lC2j-130" value="FK" style="shape=partialRectangle;connectable=0;fillColor=none;top=0;left=0;bottom=0;right=0;editable=1;overflow=hidden;strokeColor=#DDA15E;fontColor=#FEFAE0;rounded=1;" parent="1" vertex="1">
          <mxGeometry x="180" y="270" width="30" height="30" as="geometry" />
        </mxCell>
        <mxCell id="2K_hxgvxmtsvpuLOeM-7-1" value="" style="edgeStyle=entityRelationEdgeStyle;fontSize=12;html=1;endArrow=ERoneToMany;strokeColor=#DDA15E;fillColor=#BC6C25;exitX=1.018;exitY=0.2;exitDx=0;exitDy=0;exitPerimeter=0;" edge="1" parent="1" source="mzSuAw1_2x3uhrXtTWw6-29" target="GnCDCCcLNcnBo4Y5lC2j-31">
          <mxGeometry width="100" height="100" relative="1" as="geometry">
            <mxPoint x="320" y="80" as="sourcePoint" />
            <mxPoint x="510" y="270" as="targetPoint" />
          </mxGeometry>
        </mxCell>
        <mxCell id="2K_hxgvxmtsvpuLOeM-7-2" value="PlanDealing" style="shape=table;startSize=30;container=1;collapsible=1;childLayout=tableLayout;fixedRows=1;rowLines=0;fontStyle=3;align=center;resizeLast=1;fillColor=#BC6C25;strokeColor=#DDA15E;fontColor=#FEFAE0;rounded=1;" vertex="1" parent="1">
          <mxGeometry x="30" y="370" width="110" height="140" as="geometry" />
        </mxCell>
        <mxCell id="2K_hxgvxmtsvpuLOeM-7-3" value="" style="shape=partialRectangle;collapsible=0;dropTarget=0;pointerEvents=0;fillColor=none;top=0;left=0;bottom=1;right=0;points=[[0,0.5],[1,0.5]];portConstraint=eastwest;strokeColor=#DDA15E;fontColor=#FEFAE0;rounded=1;" vertex="1" parent="2K_hxgvxmtsvpuLOeM-7-2">
          <mxGeometry y="30" width="110" height="30" as="geometry" />
        </mxCell>
        <mxCell id="2K_hxgvxmtsvpuLOeM-7-4" value="PK" style="shape=partialRectangle;connectable=0;fillColor=none;top=0;left=0;bottom=0;right=0;fontStyle=1;overflow=hidden;strokeColor=#DDA15E;fontColor=#FEFAE0;rounded=1;" vertex="1" parent="2K_hxgvxmtsvpuLOeM-7-3">
          <mxGeometry width="30" height="30" as="geometry" />
        </mxCell>
        <mxCell id="2K_hxgvxmtsvpuLOeM-7-5" value="id" style="shape=partialRectangle;connectable=0;fillColor=none;top=0;left=0;bottom=0;right=0;align=left;spacingLeft=6;fontStyle=5;overflow=hidden;strokeColor=#DDA15E;fontColor=#FEFAE0;rounded=1;" vertex="1" parent="2K_hxgvxmtsvpuLOeM-7-3">
          <mxGeometry x="30" width="80" height="30" as="geometry" />
        </mxCell>
        <mxCell id="2K_hxgvxmtsvpuLOeM-7-6" value="" style="shape=partialRectangle;collapsible=0;dropTarget=0;pointerEvents=0;fillColor=none;top=0;left=0;bottom=0;right=0;points=[[0,0.5],[1,0.5]];portConstraint=eastwest;strokeColor=#DDA15E;fontColor=#FEFAE0;rounded=1;" vertex="1" parent="2K_hxgvxmtsvpuLOeM-7-2">
          <mxGeometry y="60" width="110" height="30" as="geometry" />
        </mxCell>
        <mxCell id="2K_hxgvxmtsvpuLOeM-7-7" value="" style="shape=partialRectangle;connectable=0;fillColor=none;top=0;left=0;bottom=0;right=0;editable=1;overflow=hidden;strokeColor=#DDA15E;fontColor=#FEFAE0;rounded=1;" vertex="1" parent="2K_hxgvxmtsvpuLOeM-7-6">
          <mxGeometry width="30" height="30" as="geometry" />
        </mxCell>
        <mxCell id="2K_hxgvxmtsvpuLOeM-7-8" value="" style="shape=partialRectangle;connectable=0;fillColor=none;top=0;left=0;bottom=0;right=0;align=left;spacingLeft=6;overflow=hidden;strokeColor=#DDA15E;fontColor=#FEFAE0;rounded=1;" vertex="1" parent="2K_hxgvxmtsvpuLOeM-7-6">
          <mxGeometry x="30" width="80" height="30" as="geometry" />
        </mxCell>
        <mxCell id="2K_hxgvxmtsvpuLOeM-7-9" value="" style="shape=partialRectangle;collapsible=0;dropTarget=0;pointerEvents=0;fillColor=none;top=0;left=0;bottom=0;right=0;points=[[0,0.5],[1,0.5]];portConstraint=eastwest;strokeColor=#DDA15E;fontColor=#FEFAE0;rounded=1;" vertex="1" parent="2K_hxgvxmtsvpuLOeM-7-2">
          <mxGeometry y="90" width="110" height="20" as="geometry" />
        </mxCell>
        <mxCell id="2K_hxgvxmtsvpuLOeM-7-10" value="" style="shape=partialRectangle;connectable=0;fillColor=none;top=0;left=0;bottom=0;right=0;editable=1;overflow=hidden;strokeColor=#DDA15E;fontColor=#FEFAE0;rounded=1;" vertex="1" parent="2K_hxgvxmtsvpuLOeM-7-9">
          <mxGeometry width="30" height="20" as="geometry" />
        </mxCell>
        <mxCell id="2K_hxgvxmtsvpuLOeM-7-11" value="" style="shape=partialRectangle;connectable=0;fillColor=none;top=0;left=0;bottom=0;right=0;align=left;spacingLeft=6;overflow=hidden;strokeColor=#DDA15E;fontColor=#FEFAE0;rounded=1;" vertex="1" parent="2K_hxgvxmtsvpuLOeM-7-9">
          <mxGeometry x="30" width="80" height="20" as="geometry" />
        </mxCell>
        <mxCell id="2K_hxgvxmtsvpuLOeM-7-12" value="" style="shape=partialRectangle;collapsible=0;dropTarget=0;pointerEvents=0;fillColor=none;top=0;left=0;bottom=0;right=0;points=[[0,0.5],[1,0.5]];portConstraint=eastwest;strokeColor=#DDA15E;fontColor=#FEFAE0;rounded=1;" vertex="1" parent="2K_hxgvxmtsvpuLOeM-7-2">
          <mxGeometry y="110" width="110" height="30" as="geometry" />
        </mxCell>
        <mxCell id="2K_hxgvxmtsvpuLOeM-7-13" value="" style="shape=partialRectangle;connectable=0;fillColor=none;top=0;left=0;bottom=0;right=0;editable=1;overflow=hidden;strokeColor=#DDA15E;fontColor=#FEFAE0;rounded=1;" vertex="1" parent="2K_hxgvxmtsvpuLOeM-7-12">
          <mxGeometry width="30" height="30" as="geometry" />
        </mxCell>
        <mxCell id="2K_hxgvxmtsvpuLOeM-7-14" value="" style="shape=partialRectangle;connectable=0;fillColor=none;top=0;left=0;bottom=0;right=0;align=left;spacingLeft=6;overflow=hidden;strokeColor=#DDA15E;fontColor=#FEFAE0;rounded=1;" vertex="1" parent="2K_hxgvxmtsvpuLOeM-7-12">
          <mxGeometry x="30" width="80" height="30" as="geometry" />
        </mxCell>
      </root>
    </mxGraphModel>
  </diagram>
</mxfile>
